<svg xmlns="http://www.w3.org/2000/svg" viewBox="0 0 700 260" width="700" height="260" font-family='Charter, Georgia, "Times New Roman", serif'><line x1="60" y1="214" x2="684" y2="214" stroke="#b8b8b8" stroke-width="1"/><text x="52" y="218" font-size="12" text-anchor="end" fill="#555">0</text><line x1="60" y1="165.5" x2="684" y2="165.5" stroke="#b8b8b8" stroke-width="1"/><text x="52" y="169.5" font-size="12" text-anchor="end" fill="#555">46</text><line x1="60" y1="117" x2="684" y2="117" stroke="#b8b8b8" stroke-width="1"/><text x="52" y="121" font-size="12" text-anchor="end" fill="#555">91</text><line x1="60" y1="68.5" x2="684" y2="68.5" stroke="#b8b8b8" stroke-width="1"/><text x="52" y="72.5" font-size="12" text-anchor="end" fill="#555">137</text><line x1="60" y1="20" x2="684" y2="20" stroke="#b8b8b8" stroke-width="1"/><text x="52" y="24" font-size="12" text-anchor="end" fill="#555">182</text><rect x="62" y="179.8901098901099" width="40.57142857142857" height="34.10989010989011" fill="#1f4e8c"/><text x="82.28571428571428" y="234" font-size="11" text-anchor="middle" fill="#555">10</text><rect x="106.57142857142857" y="204.4065934065934" width="40.57142857142857" height="9.593406593406593" fill="#1f4e8c"/><rect x="151.14285714285714" y="194.8131868131868" width="40.57142857142857" height="19.186813186813186" fill="#1f4e8c"/><text x="171.42857142857142" y="234" font-size="11" text-anchor="middle" fill="#555">20</text><rect x="195.71428571428572" y="123.3956043956044" width="40.57142857142857" height="90.6043956043956" fill="#1f4e8c"/><rect x="240.28571428571428" y="40.25274725274724" width="40.57142857142857" height="173.74725274725276" fill="#1f4e8c"/><text x="260.57142857142856" y="234" font-size="11" text-anchor="middle" fill="#555">30</text><rect x="284.85714285714283" y="20" width="40.57142857142857" height="194" fill="#1f4e8c"/><rect x="329.42857142857144" y="20" width="40.57142857142857" height="194" fill="#1f4e8c"/><text x="349.7142857142857" y="234" font-size="11" text-anchor="middle" fill="#555">40</text><rect x="374" y="51.978021978021985" width="40.57142857142857" height="162.02197802197801" fill="#1f4e8c"/><rect x="418.57142857142856" y="126.5934065934066" width="40.57142857142857" height="87.4065934065934" fill="#1f4e8c"/><text x="438.85714285714283" y="234" font-size="11" text-anchor="middle" fill="#555">50</text><rect x="463.1428571428571" y="150.04395604395603" width="40.57142857142857" height="63.956043956043956" fill="#1f4e8c"/><rect x="507.71428571428567" y="186.28571428571428" width="40.57142857142857" height="27.714285714285715" fill="#1f4e8c"/><text x="528" y="234" font-size="11" text-anchor="middle" fill="#555">60</text><rect x="552.2857142857142" y="209.73626373626374" width="40.57142857142857" height="4.263736263736264" fill="#1f4e8c"/><rect x="596.8571428571429" y="210.8021978021978" width="40.57142857142857" height="3.197802197802198" fill="#1f4e8c"/><text x="617.1428571428572" y="234" font-size="11" text-anchor="middle" fill="#555">70</text><rect x="641.4285714285714" y="211.86813186813185" width="40.57142857142857" height="2.131868131868132" fill="#1f4e8c"/><line x1="60" y1="214" x2="684" y2="214" stroke="#1a1a1a" stroke-width="1"/><text x="372" y="254" font-size="12" text-anchor="middle" fill="#555">minutiae per print</text><text x="6" y="30" font-size="12" text-anchor="start" fill="#555">prints</text></svg>